<svg width="259" height="156" viewBox="0 0 259 156" fill="none" xmlns="http://www.w3.org/2000/svg">
<path d="M198.296 154.236C194.981 151.413 192.966 146.954 193.495 142.613C194.023 138.272 197.294 134.281 201.538 133.359C205.782 132.437 210.619 134.989 211.908 139.166C212.617 131.114 213.435 122.725 217.684 115.868C221.532 109.659 228.196 105.217 235.418 104.422C242.64 103.627 250.244 106.629 254.748 112.372C259.253 118.115 260.355 126.464 257.201 133.057C254.877 137.914 250.595 141.529 246.109 144.469C231.614 153.892 214.228 157.724 197.151 155.26L198.296 154.236Z" fill="#CFE8FC"/>
<path d="M247.606 106.795C241.647 111.685 236.18 117.154 231.285 123.124C223.623 132.433 217.423 142.871 212.901 154.073C212.57 154.891 213.887 155.246 214.214 154.438C221.613 136.232 233.425 120.185 248.57 107.766C249.25 107.208 248.281 106.242 247.606 106.795Z" fill="white"/>
<path d="M83.3763 153.469C87.9307 149.592 90.6971 143.467 89.9716 137.505C89.2461 131.542 84.7527 126.061 78.924 124.795C73.0954 123.529 66.4511 127.034 64.6807 132.77C63.7064 121.711 62.5837 110.188 56.7475 100.77C51.4629 92.2427 42.31 86.1409 32.3902 85.0493C22.4705 83.9576 12.0263 88.0805 5.83973 95.9684C-0.34685 103.856 -1.86161 115.324 2.47131 124.38C5.66322 131.051 11.5438 136.016 17.7053 140.055C37.3623 152.941 61.7469 158.315 84.9492 154.875" fill="#CFE8FC"/>
<path d="M15.6492 88.3091C23.8342 95.0256 31.3431 102.537 38.0672 110.736C44.7924 118.926 50.7132 127.754 55.7465 137.096C58.5599 142.337 61.0872 147.728 63.3172 153.246C63.7718 154.368 61.9626 154.857 61.513 153.747C57.5632 144.019 52.6765 134.704 46.923 125.936C41.1974 117.2 34.6442 109.044 27.3555 101.583C23.2329 97.3652 18.8832 93.3788 14.3262 89.6419C13.3921 88.8757 14.7228 87.5491 15.6492 88.3091Z" fill="white"/>
<path d="M185.914 155.659H77.2534V43.3385C77.2534 19.4415 96.5511 0 120.271 0H142.897C166.617 0 185.914 19.4415 185.914 43.3385V155.659Z" fill="#F2F2F2"/>
<path d="M163.289 155.658L77.2534 155.659V43.3385C77.2297 34.1817 80.1078 25.2563 85.4687 17.8619C85.6663 17.5906 85.8634 17.3227 86.0667 17.0578C88.6598 13.6315 91.7456 10.6141 95.2223 8.105C95.4187 7.96104 95.6158 7.81958 95.8159 7.67811C98.7251 5.64988 101.872 3.99184 105.185 2.74173C105.382 2.6666 105.582 2.59133 105.783 2.51913C108.779 1.44184 111.885 0.703899 115.044 0.318937C115.239 0.291989 115.44 0.270902 115.641 0.249815C118.719 -0.0817378 121.824 -0.0817378 124.902 0.249815C125.102 0.270902 125.303 0.291987 125.501 0.319225C128.659 0.704212 131.764 1.44206 134.76 2.51914C134.96 2.59134 135.161 2.66661 135.358 2.74188C138.63 3.97622 141.74 5.60952 144.618 7.60533C144.818 7.74373 145.018 7.88519 145.216 8.02666C147.164 9.42811 148.995 10.9894 150.688 12.6946C152.046 14.0624 153.312 15.5203 154.476 17.0587C154.679 17.3227 154.876 17.5906 155.073 17.8615C160.435 25.256 163.313 34.1815 163.289 43.3384V155.658Z" fill="#CFE8FC"/>
<path d="M156.293 105.422C158.924 105.422 161.056 103.273 161.056 100.623C161.056 97.9729 158.924 95.8245 156.293 95.8245C153.662 95.8245 151.53 97.9729 151.53 100.623C151.53 103.273 153.662 105.422 156.293 105.422Z" fill="#CFE8FC"/>
<path d="M177.013 152.294H173.363L171.627 138.112L177.013 138.112L177.013 152.294Z" fill="#FFB8B8"/>
<path d="M170.756 151.244H177.795V155.709H166.324C166.324 155.122 166.439 154.542 166.661 154C166.884 153.458 167.211 152.966 167.622 152.551C168.034 152.137 168.522 151.808 169.06 151.583C169.598 151.359 170.174 151.244 170.756 151.244Z" fill="#2F2E41"/>
<path d="M195.173 152.294H191.523L189.786 138.112L195.173 138.112L195.173 152.294Z" fill="#FFB8B8"/>
<path d="M188.916 151.244H195.954V155.709H184.484C184.484 155.122 184.599 154.542 184.821 154C185.044 153.458 185.37 152.966 185.782 152.551C186.193 152.137 186.682 151.808 187.22 151.583C187.757 151.359 188.334 151.244 188.916 151.244Z" fill="#2F2E41"/>
<path d="M158.704 101.574C158.441 101.184 158.267 100.741 158.192 100.276C158.118 99.811 158.146 99.3352 158.274 98.8822C158.402 98.4291 158.627 98.0099 158.933 97.654C159.24 97.2981 159.62 97.0141 160.047 96.8222L172.453 62.3713L178.559 65.7279L164.392 98.6503C164.665 99.3943 164.657 100.213 164.371 100.952C164.084 101.69 163.538 102.297 162.837 102.658C162.136 103.018 161.328 103.107 160.566 102.907C159.804 102.707 159.142 102.233 158.704 101.574Z" fill="#FFB8B8"/>
<path d="M193.308 108.047C192.903 107.813 192.553 107.492 192.284 107.107C192.015 106.722 191.833 106.282 191.751 105.818C191.668 105.354 191.688 104.878 191.809 104.423C191.929 103.968 192.147 103.545 192.447 103.184L188.603 66.7405L195.551 67.0603L197.148 102.907C197.717 103.455 198.067 104.194 198.13 104.985C198.194 105.775 197.968 106.562 197.495 107.196C197.021 107.829 196.334 108.266 195.562 108.423C194.791 108.58 193.989 108.446 193.308 108.047Z" fill="#FFB8B8"/>
<path d="M182.225 55.9902C186.263 55.9902 189.536 52.6921 189.536 48.6238C189.536 44.5555 186.263 41.2575 182.225 41.2575C178.186 41.2575 174.913 44.5555 174.913 48.6238C174.913 52.6921 178.186 55.9902 182.225 55.9902Z" fill="#FFB8B8"/>
<path d="M193.262 99.759H171.218L171.244 99.5862C171.284 99.3279 175.173 73.6614 172.305 65.2646C172.017 64.4394 172.042 63.5361 172.376 62.7286C172.709 61.9211 173.327 61.2665 174.111 60.8907C178.211 58.9456 186.081 56.5505 192.724 62.363C193.701 63.2325 194.465 64.319 194.953 65.5369C195.442 66.7547 195.643 68.0704 195.54 69.38L193.262 99.759Z" fill="#AECCE4"/>
<path d="M175.451 77.4545L165.527 75.4261L170.179 64.3201C170.457 63.2444 171.148 62.3239 172.099 61.7605C173.05 61.197 174.184 61.0366 175.253 61.3145C176.321 61.5924 177.237 62.2858 177.798 63.2427C178.36 64.1996 178.522 65.3418 178.248 66.4188L175.451 77.4545Z" fill="#AECCE4"/>
<path d="M188.162 81.2208L187.566 67.442C187.113 64.8519 188.585 62.4033 190.848 62.0031C193.113 61.6043 195.323 63.4007 195.778 66.0099L198.02 78.8848L188.162 81.2208Z" fill="#AECCE4"/>
<path d="M192.528 98.1094C196.075 111.719 196.462 129.022 195.505 147.896L190.742 147.296L182.109 111.306L177.345 147.896L171.987 147.596C170.386 127.793 168.827 110.791 171.391 99.609L192.528 98.1094Z" fill="#2F2E41"/>
<path d="M187.042 54.3167C185.678 55.7806 183.145 54.9948 182.967 52.9949C182.953 52.8397 182.954 52.6834 182.97 52.5284C183.062 51.6425 183.57 50.8383 183.448 49.903C183.421 49.6702 183.335 49.4484 183.198 49.2585C182.111 47.7921 179.56 49.9144 178.534 48.5869C177.905 47.7729 178.644 46.4913 178.162 45.5815C177.524 44.3808 175.637 44.9731 174.454 44.3155C173.137 43.5838 173.216 41.5487 174.083 40.3108C175.14 38.8011 176.993 37.9955 178.823 37.8794C180.653 37.7633 182.471 38.2617 184.18 38.9326C186.121 39.6948 188.046 40.7481 189.241 42.4679C190.694 44.5593 190.833 47.371 190.107 49.8165C189.665 51.3041 188.156 53.1213 187.042 54.3167Z" fill="#2F2E41"/>
<path d="M250.064 155.852H30.2725C30.1787 155.851 30.0888 155.813 30.0225 155.747C29.9563 155.68 29.9191 155.589 29.9191 155.494C29.9191 155.4 29.9563 155.309 30.0225 155.242C30.0888 155.175 30.1787 155.138 30.2725 155.137H250.064C250.157 155.138 250.247 155.175 250.313 155.242C250.38 155.309 250.417 155.4 250.417 155.494C250.417 155.589 250.38 155.68 250.313 155.747C250.247 155.813 250.157 155.851 250.064 155.852Z" fill="#3F3D56"/>
<path d="M139.622 123.117H100.921C100.411 123.12 99.921 122.919 99.5583 122.558C99.1955 122.198 98.9896 121.707 98.9856 121.193V34.1655C98.9896 33.652 99.1955 33.1611 99.5583 32.8004C99.921 32.4396 100.411 32.2386 100.921 32.2414H139.622C140.132 32.2386 140.621 32.4396 140.984 32.8004C141.347 33.1611 141.553 33.652 141.557 34.1655V121.193C141.553 121.707 141.347 122.198 140.984 122.558C140.621 122.919 140.132 123.12 139.622 123.117Z" fill="white"/>
<path d="M141.557 60.4008H98.9856V61.0006H141.557V60.4008Z" fill="#CFE8FC"/>
<path d="M141.706 94.6248H99.1345V95.2246H141.706V94.6248Z" fill="#CFE8FC"/>
<path d="M112.978 32.2414H112.382V123.417H112.978V32.2414Z" fill="#CFE8FC"/>
<path d="M127.863 32.2414H127.267V123.417H127.863V32.2414Z" fill="#CFE8FC"/>
</svg>
