<svg width="250" height="150" viewBox="0 0 250 150" fill="none" xmlns="http://www.w3.org/2000/svg">
<path d="M191.406 148.315C188.205 145.6 186.261 141.312 186.771 137.138C187.281 132.964 190.439 129.126 194.535 128.24C198.631 127.353 203.3 129.807 204.545 133.823C205.229 126.08 206.018 118.013 210.12 111.42C213.834 105.449 220.266 101.177 227.237 100.413C234.208 99.6488 241.548 102.535 245.896 108.058C250.244 113.58 251.308 121.609 248.263 127.949C246.02 132.62 241.887 136.095 237.557 138.923C223.565 147.984 206.784 151.669 190.301 149.299L191.406 148.315Z" fill="#CFE8FC"/>
<path d="M239.002 102.695C233.25 107.398 227.973 112.657 223.248 118.397C215.852 127.349 209.868 137.386 205.503 148.159C205.183 148.945 206.455 149.287 206.771 148.509C213.913 131.002 225.314 115.571 239.932 103.629C240.588 103.092 239.653 102.163 239.002 102.695Z" fill="white"/>
<path d="M80.4791 147.577C84.8752 143.849 87.5454 137.96 86.8452 132.226C86.1449 126.492 81.8076 121.222 76.1815 120.004C70.5554 118.787 64.142 122.157 62.4331 127.673C61.4927 117.038 60.409 105.958 54.7756 96.9018C49.6746 88.7016 40.8397 82.8339 31.2647 81.7842C21.6897 80.7345 11.6084 84.6992 5.6368 92.2842C-0.334798 99.8693 -1.79692 110.896 2.38543 119.605C5.46642 126.02 11.1427 130.794 17.09 134.678C36.064 147.069 59.6013 152.237 81.9973 148.93" fill="#CFE8FC"/>
<path d="M15.1054 84.9189C23.006 91.3776 30.2539 98.6011 36.7444 106.485C43.2359 114.361 48.951 122.85 53.8094 131.833C56.525 136.872 58.9645 142.057 61.117 147.363C61.5558 148.442 59.8095 148.912 59.3755 147.845C55.5629 138.49 50.846 129.533 45.2924 121.102C39.7659 112.701 33.4404 104.858 26.4049 97.6835C22.4256 93.6274 18.2271 89.794 13.8284 86.2006C12.9268 85.4638 14.2112 84.1881 15.1054 84.9189Z" fill="white"/>
<path d="M179.454 149.683H74.569V41.6747C74.569 18.6951 93.196 0 116.092 0H137.931C160.827 0 179.454 18.6951 179.454 41.6747V149.683Z" fill="#F2F2F2"/>
<path d="M157.615 149.683L74.569 149.683V41.6747C74.546 32.8695 77.3241 24.2867 82.4988 17.1762C82.6895 16.9153 82.8798 16.6577 83.076 16.4029C85.5789 13.1082 88.5575 10.2066 91.9134 7.79385C92.103 7.65542 92.2933 7.51939 92.4864 7.38335C95.2945 5.43298 98.3322 3.83859 101.53 2.63647C101.72 2.56423 101.913 2.49185 102.107 2.42242C104.999 1.38649 107.997 0.676876 111.046 0.306693C111.235 0.28078 111.429 0.260502 111.623 0.240225C114.594 -0.0785999 117.59 -0.0785999 120.561 0.240225C120.755 0.260502 120.949 0.280777 121.14 0.30697C124.188 0.677178 127.186 1.3867 130.077 2.42243C130.27 2.49186 130.464 2.56424 130.654 2.63662C133.813 3.82358 136.815 5.39418 139.593 7.31337C139.786 7.44645 139.979 7.58248 140.169 7.71852C142.051 9.06617 143.817 10.5675 145.452 12.2073C146.763 13.5225 147.985 14.9245 149.109 16.4038C149.304 16.6577 149.494 16.9153 149.685 17.1758C154.86 24.2864 157.638 32.8693 157.615 41.6747V149.683Z" fill="#CFE8FC"/>
<path d="M150.862 101.375C153.401 101.375 155.46 99.3088 155.46 96.7603C155.46 94.2118 153.401 92.1458 150.862 92.1458C148.323 92.1458 146.264 94.2118 146.264 96.7603C146.264 99.3088 148.323 101.375 150.862 101.375Z" fill="#CFE8FC"/>
<path d="M170.862 146.448H167.339L165.663 132.81L170.862 132.81L170.862 146.448Z" fill="#FFB8B8"/>
<path d="M164.822 145.437H171.617V149.731H160.544C160.544 149.167 160.655 148.609 160.87 148.088C161.085 147.567 161.4 147.094 161.797 146.695C162.195 146.296 162.666 145.98 163.185 145.764C163.704 145.548 164.261 145.437 164.822 145.437Z" fill="#2F2E41"/>
<path d="M188.391 146.448H184.868L183.191 132.81L188.391 132.81L188.391 146.448Z" fill="#FFB8B8"/>
<path d="M182.351 145.437H189.145V149.731H178.073C178.073 149.167 178.184 148.609 178.399 148.088C178.614 147.567 178.929 147.094 179.326 146.695C179.723 146.296 180.195 145.98 180.714 145.764C181.233 145.548 181.789 145.437 182.351 145.437Z" fill="#2F2E41"/>
<path d="M153.189 97.6744C152.936 97.2997 152.767 96.8737 152.695 96.4265C152.624 95.9793 152.651 95.5218 152.774 95.0861C152.898 94.6505 153.115 94.2473 153.411 93.9051C153.706 93.5628 154.073 93.2898 154.485 93.1052L166.461 59.9769L172.354 63.2046L158.68 94.8632C158.943 95.5786 158.936 96.366 158.659 97.0762C158.382 97.7864 157.855 98.3701 157.179 98.7166C156.502 99.0632 155.722 99.1485 154.986 98.9564C154.251 98.7643 153.612 98.3082 153.189 97.6744Z" fill="#FFB8B8"/>
<path d="M186.591 103.899C186.199 103.674 185.862 103.365 185.602 102.995C185.342 102.625 185.167 102.202 185.087 101.756C185.008 101.31 185.027 100.852 185.143 100.414C185.26 99.9765 185.47 99.5697 185.76 99.2224L182.05 64.1783L188.756 64.4858L190.298 98.9563C190.847 99.4835 191.184 100.194 191.246 100.955C191.307 101.715 191.089 102.471 190.632 103.08C190.175 103.69 189.511 104.11 188.766 104.26C188.022 104.411 187.248 104.283 186.591 103.899Z" fill="#FFB8B8"/>
<path d="M175.892 53.8407C179.79 53.8407 182.95 50.6693 182.95 46.7572C182.95 42.845 179.79 39.6736 175.892 39.6736C171.995 39.6736 168.835 42.845 168.835 46.7572C168.835 50.6693 171.995 53.8407 175.892 53.8407Z" fill="#FFB8B8"/>
<path d="M186.546 95.9293H165.268L165.294 95.7631C165.332 95.5147 169.086 70.8336 166.317 62.7591C166.039 61.9656 166.064 61.097 166.386 60.3205C166.708 59.544 167.304 58.9145 168.061 58.5531C172.019 56.6827 179.615 54.3795 186.027 59.9689C186.97 60.805 187.707 61.8499 188.179 63.021C188.651 64.1921 188.844 65.4572 188.745 66.7165L186.546 95.9293Z" fill="#AECCE4"/>
<path d="M169.355 74.4811L159.775 72.5305L164.266 61.8509C164.534 60.8165 165.201 59.9313 166.119 59.3895C167.037 58.8477 168.132 58.6935 169.163 58.9607C170.194 59.2279 171.078 59.8947 171.62 60.8148C172.162 61.735 172.318 62.8334 172.054 63.869L169.355 74.4811Z" fill="#AECCE4"/>
<path d="M181.624 78.1027L181.048 64.853C180.611 62.3622 182.032 60.0077 184.217 59.6228C186.402 59.2393 188.536 60.9668 188.975 63.4758L191.139 75.8565L181.624 78.1027Z" fill="#AECCE4"/>
<path d="M185.838 94.343C189.262 107.43 189.635 124.069 188.712 142.218L184.114 141.642L175.78 107.033L171.183 142.218L166.01 141.93C164.465 122.887 162.961 106.538 165.436 95.7851L185.838 94.343Z" fill="#2F2E41"/>
<path d="M180.543 52.2315C179.226 53.6392 176.781 52.8835 176.609 50.9605C176.596 50.8112 176.597 50.6609 176.612 50.5118C176.701 49.66 177.191 48.8866 177.074 47.9872C177.047 47.7634 176.964 47.55 176.832 47.3675C175.783 45.9573 173.32 47.9982 172.33 46.7216C171.723 45.9389 172.437 44.7065 171.971 43.8316C171.356 42.677 169.534 43.2466 168.392 42.6142C167.121 41.9107 167.197 39.9536 168.034 38.7632C169.054 37.3115 170.843 36.5369 172.609 36.4252C174.376 36.3136 176.13 36.7929 177.78 37.438C179.653 38.1709 181.512 39.1838 182.665 40.8376C184.067 42.8487 184.202 45.5524 183.501 47.904C183.074 49.3345 181.618 51.082 180.543 52.2315Z" fill="#2F2E41"/>
<path d="M241.374 149.868H29.2206C29.13 149.868 29.0432 149.832 28.9793 149.767C28.9153 149.703 28.8794 149.616 28.8794 149.525C28.8794 149.434 28.9153 149.347 28.9793 149.283C29.0432 149.218 29.13 149.182 29.2206 149.182H241.374C241.465 149.182 241.551 149.218 241.615 149.283C241.679 149.347 241.715 149.434 241.715 149.525C241.715 149.616 241.679 149.703 241.615 149.767C241.551 149.832 241.465 149.868 241.374 149.868Z" fill="#3F3D56"/>
<path d="M134.77 118.391H97.4138C96.9218 118.393 96.4489 118.2 96.0987 117.853C95.7486 117.506 95.5498 117.034 95.546 116.541V32.8539C95.5498 32.3601 95.7486 31.888 96.0987 31.5412C96.4489 31.1943 96.9218 31.001 97.4138 31.0037H134.77C135.262 31.001 135.735 31.1943 136.085 31.5412C136.435 31.888 136.634 32.3601 136.638 32.8539V116.541C136.634 117.034 136.435 117.506 136.085 117.853C135.735 118.2 135.262 118.393 134.77 118.391Z" fill="white"/>
<path d="M136.638 58.082H95.546V58.6588H136.638V58.082Z" fill="#CFE8FC"/>
<path d="M136.782 90.9922H95.6896V91.569H136.782V90.9922Z" fill="#CFE8FC"/>
<path d="M109.052 31.0037H108.477V118.679H109.052V31.0037Z" fill="#CFE8FC"/>
<path d="M123.42 31.0037H122.845V118.679H123.42V31.0037Z" fill="#CFE8FC"/>
</svg>
