<svg width="232" height="200" viewBox="0 0 232 200" fill="none" xmlns="http://www.w3.org/2000/svg">
<g filter="url(#filter0_d_5_71)">
<g clip-path="url(#clip0_5_71)">
<rect x="4" width="224" height="192" rx="25" fill="#011F4B"/>
<path d="M228 191.446C228 191.753 227.784 192 227.516 192H4.48413C4.21562 192 4 191.753 4 191.446C4 191.139 4.21562 190.892 4.48413 190.892H227.516C227.784 190.892 228 191.139 228 191.446Z" fill="#2E2E43"/>
<path d="M181.645 39.4685H50.4093C48.5954 39.4685 47.1197 37.78 47.1197 35.7044V24.1351C47.1197 22.0596 48.5954 20.371 50.4093 20.371H181.645C183.459 20.371 184.935 22.0596 184.935 24.1351V35.7044C184.935 37.78 183.459 39.4685 181.645 39.4685Z" fill="white" stroke="#BAB7C9" stroke-width="2" stroke-linecap="round" stroke-linejoin="round"/>
<path d="M181.645 110.788H50.4093C48.5954 110.788 47.1197 109.1 47.1197 107.024V95.4549C47.1197 93.3794 48.5954 91.6908 50.4093 91.6908H181.645C183.459 91.6908 184.935 93.3794 184.935 95.4549V107.024C184.935 109.1 183.459 110.788 181.645 110.788Z" fill="white" stroke="#BAB7C9" stroke-width="2" stroke-linecap="round" stroke-linejoin="round"/>
<path d="M88.4816 161.995H50.0025C48.1886 161.995 46.7129 160.307 46.7129 158.231V146.662C46.7129 144.586 48.1886 142.898 50.0025 142.898H88.4816C90.2955 142.898 91.7712 144.586 91.7712 146.662V158.231C91.7712 160.307 90.2955 161.995 88.4816 161.995Z" fill="white"/>
<path d="M47.4079 71.7853H100.875" stroke="#BAB7C9" stroke-width="2" stroke-linecap="round" stroke-linejoin="round"/>
<path d="M165.768 170.957L161.242 174.268L165.346 181.614L169.872 178.303L165.768 170.957Z" fill="#F1A1A4"/>
<path d="M151.414 72.2025L145.696 74.4366L145.606 64.9899L150.809 64.9234L151.414 72.2025Z" fill="#F1A1A4"/>
<path d="M146.274 67.5984C149.432 67.5984 151.991 64.6692 151.991 61.056C151.991 57.4427 149.432 54.5136 146.274 54.5136C143.116 54.5136 140.556 57.4427 140.556 61.056C140.556 64.6692 143.116 67.5984 146.274 67.5984Z" fill="#F1A1A4"/>
<path d="M147.838 60.3887C146.883 60.3676 146.242 59.2717 145.86 58.2633C145.477 57.261 145.084 56.1016 144.195 55.694C143.466 55.3619 142.211 57.6806 141.63 57.0768C141.026 56.4458 141.577 53.1489 142.208 52.5542C142.839 51.9594 143.704 51.8326 144.517 51.7752C146.509 51.6454 148.511 51.8024 150.469 52.2462C151.677 52.5179 152.928 52.9376 153.807 53.9248C154.923 55.1778 155.224 57.0858 155.319 58.8701C155.419 60.6967 155.342 62.6108 154.582 64.223C153.82 65.8322 152.208 67.0308 150.643 66.6443C150.477 65.6752 150.625 64.6819 150.677 63.6917C150.73 62.7074 150.654 61.6447 150.121 60.8658C149.588 60.0868 148.464 59.791 147.86 60.4944" fill="#2F2E43"/>
<path d="M154.894 62.5655C155.461 62.0794 156.139 61.6688 156.844 61.7594C157.606 61.853 158.255 62.5655 158.458 63.4109C158.661 64.2562 158.45 65.1921 157.989 65.8926C157.527 66.593 156.833 67.0579 156.094 67.2965C155.667 67.4353 155.2 67.4927 154.788 67.2965C154.184 67.0066 153.852 66.1341 154.081 65.4306" fill="#2F2E43"/>
<path d="M133.617 124.373C133.258 126.525 133.973 128.482 135.219 128.738C136.461 128.995 137.762 127.455 138.124 125.302C138.279 124.445 138.245 123.557 138.023 122.715L142.422 88.9736L136.496 87.778L134.546 122.003C134.068 122.703 133.749 123.515 133.617 124.382L133.617 124.373Z" fill="#F1A1A4"/>
<path d="M145.59 70.1012L141.554 70.1525C138.704 70.6809 137.947 72.435 137.332 75.6594C136.39 80.5775 135.187 87.132 135.44 87.2225C135.844 87.3735 142.749 90.9843 146.245 90.0907L145.593 70.1012L145.59 70.1012Z" fill="#CFE8FC"/>
<path d="M150.548 177.344L145.177 177.412L145.262 186.131L150.634 186.062L150.548 177.344Z" fill="#F1A1A4"/>
<path d="M140.068 191.478C139.501 191.487 139.002 191.478 138.622 191.442C137.192 191.312 135.823 190.123 135.129 189.428C134.817 189.117 134.715 188.61 134.87 188.175C134.981 187.864 135.208 187.626 135.493 187.526L139.253 186.246L145.313 181.455L145.382 181.594C145.408 181.645 146.02 182.874 146.229 183.707C146.308 184.024 146.292 184.287 146.176 184.492C146.097 184.634 145.986 184.718 145.896 184.77C146.007 184.9 146.356 185.165 147.427 185.346C148.983 185.612 149.297 183.758 149.308 183.68L149.319 183.616L149.363 183.58C150.1 183.022 150.551 182.771 150.709 182.822C150.809 182.853 150.97 182.91 151.461 187.934C151.506 188.091 151.828 189.244 151.627 190.355C151.411 191.563 146.807 191.203 145.889 191.122C145.862 191.125 142.422 191.451 140.063 191.478H140.071L140.068 191.478Z" fill="#2F2E43"/>
<path d="M159.902 190.029C159.271 190.038 158.691 189.957 158.276 189.878C157.87 189.8 157.548 189.434 157.479 188.969C157.427 188.634 157.514 188.299 157.706 188.045L160.303 184.682L163.226 176.947L163.35 177.023C163.395 177.05 164.482 177.723 165.047 178.303C165.26 178.523 165.369 178.756 165.369 179.003C165.369 179.172 165.313 179.311 165.258 179.405C165.413 179.447 165.83 179.459 166.822 178.967C168.266 178.249 167.675 176.485 167.648 176.416L167.627 176.356L167.651 176.301C168.018 175.383 168.287 174.894 168.442 174.84C168.543 174.81 168.704 174.752 171.445 178.719C171.556 178.825 172.363 179.607 172.706 180.67C173.078 181.826 169.012 184.308 168.189 184.794C168.165 184.818 163.915 188.432 162.168 189.467C161.474 189.878 160.648 190.014 159.896 190.02L159.904 190.029L159.902 190.029Z" fill="#2F2E43"/>
<path d="M153.786 104.362L138.746 104.552L137.538 120.578L144.084 179.655L151.762 179.556L148.361 145.431L161.115 176.12L167.886 170.565L157.88 141.889C157.88 141.889 161.113 116.758 158.321 110.545C155.532 104.332 153.788 104.353 153.788 104.353V104.362L153.786 104.362Z" fill="#2F2E43"/>
<path d="M161.274 105.244L137.387 105.548L144.211 70.1223L154.619 69.9865L161.274 105.244Z" fill="#CFE8FC"/>
<path d="M163.606 123.992C164.007 126.139 163.329 128.11 162.092 128.397C160.851 128.687 159.522 127.18 159.123 125.034C158.952 124.179 158.968 123.292 159.171 122.443L154.115 88.8196L160.015 87.4731L162.63 121.643C163.121 122.332 163.456 123.138 163.606 123.998V123.992Z" fill="#F1A1A4"/>
<path d="M150.585 70.0378L154.622 69.9865C157.479 70.4454 158.271 72.1783 158.952 75.3876C159.989 80.2816 161.316 86.7999 161.068 86.8995C160.664 87.0565 153.836 90.8424 150.324 90.0394L150.59 70.0378L150.585 70.0378Z" fill="#CFE8FC"/>
</g>
</g>
<defs>
<filter id="filter0_d_5_71" x="0" y="0" width="232" height="200" filterUnits="userSpaceOnUse" color-interpolation-filters="sRGB">
<feFlood flood-opacity="0" result="BackgroundImageFix"/>
<feColorMatrix in="SourceAlpha" type="matrix" values="0 0 0 0 0 0 0 0 0 0 0 0 0 0 0 0 0 0 127 0" result="hardAlpha"/>
<feOffset dy="4"/>
<feGaussianBlur stdDeviation="2"/>
<feComposite in2="hardAlpha" operator="out"/>
<feColorMatrix type="matrix" values="0 0 0 0 0 0 0 0 0 0 0 0 0 0 0 0 0 0 0.25 0"/>
<feBlend mode="normal" in2="BackgroundImageFix" result="effect1_dropShadow_5_71"/>
<feBlend mode="normal" in="SourceGraphic" in2="effect1_dropShadow_5_71" result="shape"/>
</filter>
<clipPath id="clip0_5_71">
<rect x="4" width="224" height="192" rx="25" fill="white"/>
</clipPath>
</defs>
</svg>
